<?xml version="1.0" encoding="UTF-8" standalone="no"?>
<!DOCTYPE svg PUBLIC "-//W3C//DTD SVG 1.1//EN" "http://www.w3.org/Graphics/SVG/1.1/DTD/svg11.dtd">
<svg width="100%" height="100%" viewBox="0 0 625 53" version="1.1" xmlns="http://www.w3.org/2000/svg"
     xmlns:xlink="http://www.w3.org/1999/xlink" xml:space="preserve" xmlns:serif="http://www.serif.com/"
     style="fill-rule:evenodd;clip-rule:evenodd;stroke-linejoin:round;stroke-miterlimit:2;">
    <g transform="matrix(1,0,0,1,-265.619,-695.666)">
        <g transform="matrix(1,0,-0.267949,1,176.195,-52.1244)">
            <path d="M353.813,799.615L353.813,774.858C353.813,772.438 352.713,770.402 350.513,768.751C348.312,767.101 345.699,766.276 342.673,766.276L319.669,766.276C316.644,766.276 314.03,767.101 311.83,768.751C309.629,770.402 308.529,772.438 308.529,774.858L308.529,799.615L303.68,799.615L303.68,774.858C303.68,771.282 305.211,768.339 308.271,766.028C311.331,763.718 315.131,762.562 319.669,762.562L342.673,762.562C347.212,762.562 351.011,763.8 354.071,766.276C357.132,768.751 358.662,771.805 358.662,775.436L358.662,799.615L353.813,799.615ZM427.729,786.742C427.729,790.373 426.198,793.426 423.138,795.902C420.078,798.377 416.278,799.615 411.74,799.615L388.736,799.615C384.198,799.615 380.398,798.46 377.338,796.149C374.278,793.839 372.747,790.895 372.747,787.319L372.747,762.562L377.596,762.562L377.596,787.319C377.596,789.74 378.696,791.776 380.897,793.426C383.097,795.076 385.71,795.902 388.736,795.902L411.74,795.902C414.766,795.902 417.379,795.076 419.579,793.426C421.78,791.776 422.88,789.74 422.88,787.319L422.88,762.562L427.729,762.562L427.729,786.742Z"
                  style="fill:rgb(116,166,214);"/>
        </g>
        <g transform="matrix(1,0,0,1,-38.1333,-52.1244)">
            <path d="M486.686,800.523L452.027,800.523C448.038,800.523 444.823,799.601 442.382,797.758C439.94,795.915 438.72,793.426 438.72,790.29C438.72,789.3 438.857,788.255 439.132,787.154L442.33,774.281C443.224,770.484 445.442,767.376 448.984,764.955C452.525,762.535 456.703,761.324 461.517,761.324L496.177,761.324L494.939,766.606L460.279,766.606C457.459,766.606 455.001,767.459 452.903,769.164C450.806,770.87 449.482,772.85 448.932,775.106L446.044,786.742C445.906,787.402 445.837,788.062 445.837,788.722C445.837,790.538 446.508,792.064 447.849,793.302C449.19,794.54 450.995,795.159 453.264,795.159L487.924,795.159L486.686,800.523Z"
                  style="fill:rgb(116,166,214);"/>
        </g>
        <g transform="matrix(1,0,0,1,-38.1333,-52.1244)">
            <path d="M549.461,787.154C548.567,790.895 546.366,794.059 542.859,796.644C539.352,799.23 535.26,800.523 530.584,800.523L507.374,800.523C503.454,800.523 500.274,799.574 497.832,797.676C495.391,795.778 494.17,793.288 494.17,790.208C494.17,789.217 494.273,788.199 494.48,787.154L497.677,774.281C498.571,770.484 500.789,767.376 504.331,764.955C507.873,762.535 512.05,761.324 516.864,761.324L539.661,761.324C543.581,761.324 546.779,762.232 549.255,764.048C551.73,765.863 552.968,768.311 552.968,771.392C552.968,772.272 552.865,773.235 552.659,774.281L549.461,787.154ZM542.756,786.742L545.644,775.106C545.782,774.446 545.851,773.813 545.851,773.208C545.851,771.337 545.197,769.769 543.891,768.504C542.584,767.239 540.762,766.606 538.423,766.606L515.626,766.606C512.807,766.606 510.348,767.459 508.251,769.164C506.153,770.87 504.83,772.85 504.279,775.106L501.391,786.742C501.254,787.402 501.185,788.062 501.185,788.722C501.185,790.538 501.855,792.064 503.196,793.302C504.537,794.54 506.342,795.159 508.612,795.159L531.409,795.159C534.228,795.159 536.739,794.279 538.939,792.518C540.933,790.923 542.206,788.997 542.756,786.742Z"
                  style="fill:rgb(116,166,214);"/>
        </g>
        <g transform="matrix(1,0,0,1,-38.1333,-52.1244)">
            <path d="M612.648,800.44L605.943,800.44L612.235,774.858C612.373,774.308 612.442,773.785 612.442,773.29C612.442,771.475 611.668,769.989 610.121,768.834C608.573,767.679 606.665,767.101 604.396,767.101L582.218,767.101C579.467,767.101 576.974,767.857 574.739,769.37C572.504,770.883 571.146,772.713 570.664,774.858L564.372,800.44L557.667,800.44L563.959,774.858C564.853,771.117 567.157,767.995 570.871,765.492C574.584,762.989 578.813,761.737 583.559,761.737L605.737,761.737C609.657,761.737 612.872,762.741 615.382,764.749C617.892,766.757 619.147,769.329 619.147,772.465C619.147,773.4 619.009,774.391 618.734,775.436L612.648,800.44Z"
                  style="fill:rgb(116,166,214);"/>
        </g>
        <g transform="matrix(1,0,0,1,-38.1333,-52.1244)">
            <path d="M665.417,788.805C665.623,788.089 665.726,787.429 665.726,786.824C665.726,784.348 664.11,783.111 660.878,783.111L637.359,783.028C634.264,783.028 631.823,782.244 630.035,780.676C628.247,779.108 627.353,777.086 627.353,774.611C627.353,771.2 628.848,768.105 631.84,765.327C634.831,762.548 638.425,761.159 642.62,761.159L677.382,761.159L676.145,766.523L642.929,766.441C638.596,766.441 635.983,768.256 635.089,771.887C634.883,772.603 634.78,773.263 634.78,773.868C634.78,776.344 636.327,777.581 639.422,777.581L663.147,777.664C666.242,777.664 668.683,778.448 670.471,780.016C672.259,781.584 673.153,783.606 673.153,786.081C673.153,789.657 671.709,792.876 668.821,795.737C665.795,798.818 662.081,800.358 657.68,800.358L622.917,800.358L624.155,794.994L657.371,795.076C661.703,795.076 664.385,792.986 665.417,788.805Z"
                  style="fill:rgb(116,166,214);"/>
        </g>
        <g transform="matrix(1,0,0,1,-38.1333,-52.1244)">
            <path d="M700.546,800.523L694.253,800.523C690.333,800.523 687.153,799.574 684.712,797.676C682.27,795.778 681.05,793.288 681.05,790.208C681.05,789.217 681.153,788.199 681.359,787.154L691.056,747.791L697.761,747.791L694.46,761.572L709.623,761.654L708.385,766.936L693.119,766.936L688.27,786.742C688.133,787.402 688.064,788.062 688.064,788.722C688.064,790.538 688.735,792.064 690.076,793.302C691.417,794.54 693.256,795.159 695.594,795.159L701.887,795.159L700.546,800.523Z"
                  style="fill:rgb(116,166,214);"/>
        </g>
        <g transform="matrix(1,0,0,1,-38.1333,-52.1244)">
            <path d="M768.065,766.523L736.706,766.523C733.956,766.523 731.514,767.376 729.383,769.082C727.251,770.787 725.91,772.74 725.36,774.941L719.17,800.523L712.465,800.523L718.654,774.528C719.548,770.732 721.801,767.555 725.411,764.997C729.021,762.438 733.199,761.159 737.944,761.159L769.303,761.159L768.065,766.523Z"
                  style="fill:rgb(116,166,214);"/>
        </g>
        <g transform="matrix(1,0,0,1,-38.1333,-52.1244)">
            <path d="M826.714,786.742C825.751,790.538 823.447,793.756 819.802,796.397C815.951,799.093 811.653,800.44 806.908,800.44L784.73,800.44C780.81,800.44 777.578,799.505 775.033,797.635C772.489,795.764 771.217,793.261 771.217,790.125C771.217,789.245 771.32,788.31 771.526,787.319L777.819,761.737L784.524,761.737L778.231,787.319C778.094,787.869 778.025,788.392 778.025,788.887C778.025,790.703 778.799,792.188 780.346,793.343C781.893,794.499 783.802,795.076 786.071,795.076L808.249,795.076C811,795.076 813.493,794.32 815.728,792.807C817.963,791.294 819.321,789.465 819.802,787.319L826.095,761.737L832.8,761.737L826.714,786.742Z"
                  style="fill:rgb(116,166,214);"/>
        </g>
        <g transform="matrix(1,0,0,1,-38.1333,-52.1244)">
            <path d="M886.6,800.523L851.94,800.523C847.951,800.523 844.736,799.588 842.295,797.717C839.854,795.847 838.633,793.343 838.633,790.208C838.702,789.217 838.839,788.199 839.046,787.154L842.244,774.281C843.138,770.484 845.355,767.376 848.897,764.955C852.439,762.535 856.616,761.324 861.43,761.324L896.09,761.324L894.852,766.606L860.192,766.606C857.373,766.606 854.914,767.459 852.817,769.164C850.719,770.87 849.396,772.85 848.845,775.106L845.957,786.742C845.82,787.402 845.751,788.062 845.751,788.722C845.751,790.538 846.421,792.064 847.762,793.302C849.103,794.54 850.909,795.159 853.178,795.159L887.838,795.159L886.6,800.523Z"
                  style="fill:rgb(116,166,214);"/>
        </g>
        <g transform="matrix(1,0,0,1,-38.1333,-52.1244)">
            <path d="M919.357,800.523L913.064,800.523C909.144,800.523 905.964,799.574 903.522,797.676C901.081,795.778 899.86,793.288 899.86,790.208C899.86,789.217 899.964,788.199 900.17,787.154L909.866,747.791L916.571,747.791L913.27,761.572L928.434,761.654L927.196,766.936L911.929,766.936L907.081,786.742C906.944,787.402 906.875,788.062 906.875,788.722C906.875,790.538 907.545,792.064 908.886,793.302C910.227,794.54 912.067,795.159 914.405,795.159L920.698,795.159L919.357,800.523Z"
                  style="fill:rgb(116,166,214);"/>
        </g>
    </g>
</svg>
